<svg width="128" height="128" viewBox="0 0 128 128" fill="none" xmlns="http://www.w3.org/2000/svg">
  <defs>
    <linearGradient id="brandGradient" x1="0" y1="64" x2="128" y2="64" gradientUnits="userSpaceOnUse">
      <stop offset="0%" stop-color="#A855F7" />
      <stop offset="100%" stop-color="#3B82F6" />
    </linearGradient>
  </defs>
  
  <path d="M64 25C47.43 25 34 38.43 34 55C34 65.27 39.16 74.34 47 79.73V90C47 91.66 48.34 93 50 93H78C79.66 93 81 91.66 81 90V79.73C88.84 74.34 94 65.27 94 55C94 38.43 80.57 25 64 25ZM64 32C76.7 32 87 42.3 87 55C87 63.65 82.22 71.19 75.15 75.04L74 75.66V86H54V75.66L52.85 75.04C45.78 71.19 41 63.65 41 55C41 42.3 51.3 32 64 32Z" fill="url(#brandGradient)"/>
  
  <rect x="54" y="96" width="20" height="3" rx="1.5" fill="url(#brandGradient)"/>
  <path d="M57 102C57 104.21 58.79 106 61 106H67C69.21 106 71 104.21 71 102H57Z" fill="url(#brandGradient)"/>
  
  <rect x="62" y="10" width="4" height="8" rx="2" fill="url(#brandGradient)"/>
  <rect x="25" y="56" width="8" height="4" rx="2" fill="url(#brandGradient)"/>
  <rect x="95" y="56" width="8" height="4" rx="2" fill="url(#brandGradient)"/>
  <rect x="37.5" y="24.1" width="8" height="4" rx="2" transform="rotate(45 37.5 24.1)" fill="url(#brandGradient)"/>
  <rect x="84.8" y="21.2" width="8" height="4" rx="2" transform="rotate(135 84.8 21.2)" fill="url(#brandGradient)"/>
  
  <path d="M58.5 47.5L71 57L66.1 59.4L70.1 67.9L66.3 69.5L62.3 61L57.2 66.1L58.5 47.5Z" fill="url(#brandGradient)"/>
</svg>
