<svg width="48" height="48" viewBox="0 0 48 48" fill="none" xmlns="http://www.w3.org/2000/svg">
  <defs>
    <linearGradient id="grad48" x1="0" y1="24" x2="48" y2="24" gradientUnits="userSpaceOnUse">
      <stop offset="0%" stop-color="#A855F7" />
      <stop offset="100%" stop-color="#3B82F6" />
    </linearGradient>
  </defs>

  <path d="M24 6C17.37 6 12 11.37 12 18C12 22.11 14.07 25.73 17.21 27.89V32C17.21 33.1 18.11 34 19.21 34H28.79C29.89 34 30.79 33.1 30.79 32V27.89C33.93 25.73 36 22.11 36 18C36 11.37 30.63 6 24 6ZM24 9C28.97 9 33 13.03 33 18C33 21.41 31.1 24.38 28.27 25.86L27.79 26.11V31H20.21V26.11L19.73 25.86C16.9 24.38 15 21.41 15 18C15 13.03 19.03 9 24 9Z" fill="url(#grad48)"/>
  
  <rect x="20.21" y="36" width="7.58" height="2" rx="1" fill="url(#grad48)"/>
  <path d="M21.5 40C21.5 41.38 22.62 42.5 24 42.5C25.38 42.5 26.5 41.38 26.5 40H21.5Z" fill="url(#grad48)"/>

  <rect x="22.5" y="1" width="3" height="6" rx="1.5" fill="url(#grad48)"/>
  <rect x="2" y="21.5" width="6" height="3" rx="1.5" fill="url(#grad48)"/>
  <rect x="40" y="21.5" width="6" height="3" rx="1.5" fill="url(#grad48)"/>
  <rect x="9.5" y="7.5" width="6" height="3" rx="1.5" transform="rotate(45 9.5 7.5)" fill="url(#grad48)"/>
  <rect x="34.5" y="5.5" width="6" height="3" rx="1.5" transform="rotate(135 34.5 5.5)" fill="url(#grad48)"/>

  <path d="M22 14L29 20L26 21.5L28.5 26.5L26 27.5L23.5 22.5L21 25.5L22 14Z" fill="url(#grad48)"/>
  <path d="M21.5 11.5L22.5 9.5M19.5 13.5L17.5 12.5M24.5 13.5L26.5 12.5" stroke="url(#grad48)" stroke-width="1.5" stroke-linecap="round"/>
</svg>
